<svg xmlns="http://www.w3.org/2000/svg" xmlns:xlink="http://www.w3.org/1999/xlink" width="512" height="512" viewBox="0 0 512 512">
  <defs>
    <clipPath id="clip-Artboard_18">
      <rect width="512" height="512"/>
    </clipPath>
  </defs>
  <g id="Artboard_18" data-name="Artboard – 18" clip-path="url(#clip-Artboard_18)">
    <g id="Group_1075" data-name="Group 1075">
      <rect id="Rectangle_503" data-name="Rectangle 503" width="512" height="512" fill="none"/>
      <g id="_43022_Converted_" data-name="43022 [Converted]" transform="translate(-1246 -127)">
        <g id="Object" transform="translate(1301.376 201.18)">
          <g id="Group_689" data-name="Group 689" transform="translate(269.563 51.749)">
            <g id="Group_686" data-name="Group 686" transform="translate(27.007 44.224)">
              <g id="Group_682" data-name="Group 682" transform="translate(40.066 133.123)">
                <path id="Path_1763" data-name="Path 1763" d="M841.071,508.418l1.612,37.376-4.728,63.546-7.068.5L822.3,552.124,810.42,503.29Z" transform="translate(-810.42 -503.29)" fill="#587bc9"/>
                <path id="Path_1764" data-name="Path 1764" d="M850.532,712.518l7.916,3.275,3.547-4.091L857.9,708.15l-7.644.544Z" transform="translate(-829.809 -602.988)" fill="#2b3342"/>
              </g>
              <g id="Group_683" data-name="Group 683" transform="translate(19.132 122.122)">
                <path id="Path_1765" data-name="Path 1765" d="M771.19,484.765l-1.55,28.249,4.6,84,7.079.354,10.605-55.091,9.358-60.414Z" transform="translate(-769.64 -481.86)" fill="#587bc9"/>
                <path id="Path_1766" data-name="Path 1766" d="M781.138,708.689l-7.844,3.445-3.634-4.019,4.014-3.634,7.654.38Z" transform="translate(-769.65 -590.201)" fill="#2b3342"/>
              </g>
              <g id="Group_684" data-name="Group 684" transform="translate(12.736 39.439)">
                <path id="Path_1767" data-name="Path 1767" d="M806.275,323.156l-22.084-2.366s-12.284,1.314-20.621,30.487c-4.635,16.232-6.047,41.806-6.391,61.3.524,2.782,3.552,14.964,16.365,12.9,22-3.547,33.716-7.1,43.295-5.323,8.162,1.776,7.474-9.466,6.576-18.039l-3.255-26.534Z" transform="translate(-757.18 -320.79)" fill="#e2e2e2"/>
              </g>
              <g id="Group_685" data-name="Group 685" transform="translate(28.838)">
                <path id="Path_1768" data-name="Path 1768" d="M823.355,270.26c-5.565-1.227-11.293-2.325-16.868-1.222a4.658,4.658,0,0,0-3.193,1.72,4.969,4.969,0,0,0-.518,1.345c-1.407,5.226-3.188,12.977.251,17.792a8.556,8.556,0,0,0,2.485,2.238,12.314,12.314,0,0,0,4.117,1.617,21.9,21.9,0,0,1-1.247,3.794c1.273,1.92,7.217,2.151,8.316.308l.185-4.784a11.931,11.931,0,0,0,2.079-1.078,13.426,13.426,0,0,0,5.185-7.053c1.057-3.1,2.546-6.032,3.516-9.184a4.425,4.425,0,0,0,.026-3.5c-.642-1.1-2.033-1.484-3.28-1.761C824.064,270.419,823.71,270.337,823.355,270.26Z" transform="translate(-794.628 -255.944)" fill="#aa6755"/>
                <path id="Path_1769" data-name="Path 1769" d="M798.749,261.265a17.364,17.364,0,0,1,9.466-2.346c7.823.565,10.688,6.309,11.1,13.5,2.156-2.736,6.2-6.181,6.442-9.707.2-2.885-.2-6.817-1.817-9.307-1.514-2.331-5.38-3.609-7.679-4.964q-3.249-1.91-6.5-3.819a4.422,4.422,0,0,0-1.427-.626,4.354,4.354,0,0,0-1.828.205l-15.369,3.973c-.986.257-2.1.626-2.469,1.576a3.216,3.216,0,0,0,.041,1.827c.58,2.659,1.7,5.38,1.976,8.07.313,1.566,1.247,9.589,4.019,8.66.816-1.329.934-2.967,1.571-4.394A6.371,6.371,0,0,1,798.749,261.265Z" transform="translate(-788.547 -243.961)" fill="#4f4b47"/>
              </g>
              <path id="Path_1770" data-name="Path 1770" d="M772.118,320.79l-8.162,2.484-29.815,31.231L732.37,364.8l14.25,23.531,3.85-8.624-6.037-17.392,9.584-6.745,12.777-28.742Z" transform="translate(-732.37 -281.351)" fill="#a9b4b9"/>
            </g>
            <g id="Group_688" data-name="Group 688">
              <path id="Path_1771" data-name="Path 1771" d="M783.6,232.726q-.816-.408-1.648-.8a49.841,49.841,0,0,0,8.532-28.367c0-25.225-17.792-45.748-39.66-45.748s-39.66,20.523-39.66,45.748a49.867,49.867,0,0,0,8.532,28.367c-.857.4-1.432.683-1.684.811a65.62,65.62,0,0,0-38.254,59.429v15.857A12.39,12.39,0,0,0,692.136,320.4H809.505a12.39,12.39,0,0,0,12.377-12.377V292.165A65.59,65.59,0,0,0,783.6,232.726Z" transform="translate(-679.76 -157.81)" fill="#fff"/>
              <g id="Group_687" data-name="Group 687" transform="translate(4.297 4.286)">
                <path id="Path_1772" data-name="Path 1772" d="M785.823,311.28c-.216.262-.421.529-.636.785-8.018,9.4-18.773,14.574-30.282,14.574s-22.263-5.174-30.282-14.574c-.221-.257-.426-.524-.636-.785a61.263,61.263,0,0,0-35.856,55.579v15.857a8.089,8.089,0,0,0,8.09,8.09H813.589a8.09,8.09,0,0,0,8.09-8.09V366.859A61.263,61.263,0,0,0,785.823,311.28Z" transform="translate(-688.13 -236.785)" fill="#8455e4"/>
                <path id="Path_1773" data-name="Path 1773" d="M784.669,249.084c9.291,0,17.746-4.2,24.055-11.078a44.889,44.889,0,0,0,11.314-30.384c0-22.9-15.836-41.462-35.374-41.462s-35.374,18.562-35.374,41.462A44.889,44.889,0,0,0,760.6,238.006C766.923,244.88,775.373,249.084,784.669,249.084Z" transform="translate(-717.894 -166.16)" fill="#8455e4"/>
              </g>
            </g>
            <path id="Path_1774" data-name="Path 1774" d="M690.615,361.84l4.389-2.5,3.978,7.243-4.184,7.433-6.678-3.09Z" transform="translate(-683.828 -255.887)" fill="#aa6755"/>
            <path id="Path_1775" data-name="Path 1775" d="M935.5,355.21l-4.384-2.5-3.983,7.243,4.184,7.433,6.679-3.09Z" transform="translate(-800.146 -252.661)" fill="#aa6755"/>
          </g>
          <g id="Group_702" data-name="Group 702" transform="translate(0 51.749)">
            <g id="Group_699" data-name="Group 699" transform="translate(24.589 53.976)">
              <g id="Group_698" data-name="Group 698">
                <g id="Group_690" data-name="Group 690" transform="translate(23.202 120.219)">
                  <path id="Path_1776" data-name="Path 1776" d="M278.443,508.443l-30.7-11.293,6.329,53.787-3.67,46.405-.1.313.077.005-.01.1,6.057.575v-.005l.226.026,13.526-41.344,7.156-44.039h0Z" transform="translate(-247.74 -497.15)" fill="#3b455a"/>
                  <path id="Path_1777" data-name="Path 1777" d="M256.57,698.239l-6.283-.159-1.607,5.3.159.046-.041.005,10.385,6.155,4.938.549.631-5.647-1.335-.975Z" transform="translate(-248.197 -594.935)" fill="#3b455a"/>
                </g>
                <g id="Group_691" data-name="Group 691" transform="translate(42.837 125.553)">
                  <path id="Path_1778" data-name="Path 1778" d="M317.976,514.424l-9.214,92.092-6.078.277-6.109-49.727L285.99,507.54Z" transform="translate(-285.99 -507.54)" fill="#3b455a"/>
                  <path id="Path_1779" data-name="Path 1779" d="M323.594,704.52l8.054,4.563-.755,3.8-14.384-2.166.842-5.472Z" transform="translate(-300.843 -603.403)" fill="#3b455a"/>
                </g>
                <g id="Group_695" data-name="Group 695" transform="translate(0 35.929)">
                  <g id="Group_692" data-name="Group 692" transform="translate(0 0.072)">
                    <path id="Path_1780" data-name="Path 1780" d="M291.758,452.651c1.94-1.35,1.987-3.7,1.982-6.052a58.82,58.82,0,0,0-1.812-13.229,198.913,198.913,0,0,1-5.077-28.187c-2.485-26.971-11-45.071-11-45.071l-2.746-7.33q-.816-1.432-1.7-2.823c-3.434-5.385-9.394-14.538-15.764-16.037l-.4-.092c-6.7-1.473-15.287-.791-21.345,2.469a21.2,21.2,0,0,0-3.188,2.259c-2.962,2.387-5.375,3.681-6.653,7.325-1.109,3.162-1.365,6.612-1.976,9.887-1.242,6.653-1.982,13.388-2.972,20.082-1.858,12.551-3.439,25.143-5.426,37.679-1.022,6.453-2.053,12.91-2.536,19.43-.426,5.765-5.626,11.612-8.547,16.781-1.016,1.8,13.583,6.453,14.892,6.761,6.057,1.412,12.5,1.047,18.742,1.078q20.521.092,41.016-1.263c4.538-.3,10.128-1.165,14.153-3.424C291.512,452.815,291.64,452.733,291.758,452.651Z" transform="translate(-202.541 -333.09)" fill="#7db5db"/>
                  </g>
                  <path id="Path_1781" data-name="Path 1781" d="M271.288,333.027s-7.705-2.079-8.773,15.308-2.839,61.395-5.323,73.463-6.211,35.733-6.211,35.733l23.6.821,26.971-2.13s-9.225-17.033-10.647-29.1,1.063-57.494-4.969-74.526S278.639,333.335,271.288,333.027Z" transform="translate(-226.115 -332.949)" fill="#7db5db"/>
                  <g id="Group_693" data-name="Group 693" transform="translate(53.078 0.837)">
                    <path id="Path_1782" data-name="Path 1782" d="M332.911,372.551l1.776,2.13,6.386-8.87-25.549-28.393-9.584-2.839L310.555,347Z" transform="translate(-305.94 -334.58)" fill="#826656"/>
                  </g>
                  <path id="Path_1783" data-name="Path 1783" d="M311.566,387.84l-5.606-4.276,1.72-2.474,4.487,2.074.272-1.545,4.353,4.24-1.443,2.818Z" transform="translate(-252.871 -356.378)" fill="#eac1a4"/>
                  <g id="Group_694" data-name="Group 694" transform="translate(60.352 27.551)">
                    <path id="Path_1784" data-name="Path 1784" d="M340.418,389.438l-.252.554-17.479-3.373-2.577,5.734,21.473,7.654Z" transform="translate(-320.11 -386.62)" fill="#826656"/>
                  </g>
                </g>
                <g id="Group_697" data-name="Group 697" transform="translate(36.037 7.488)">
                  <g id="Group_696" data-name="Group 696">
                    <path id="Path_1785" data-name="Path 1785" d="M304.1,292.285c1.165,3.5-.524,7.233-2,10.426-1.314,2.828-1.771,4.692,1.566,5.457,1.879.431,5.215,1.232,6.863-.205,1.247-1.088.544-4.456-.062-5.8-.462-1.022-1.689-1.54-2.125-2.572a3.582,3.582,0,0,1-.21-1.36,18.9,18.9,0,0,1,.77-5.59,19.29,19.29,0,0,0,.97-3.711c.159-1.853-1.15-4.009-1.838-5.714-1.278-3.167-5.739-7.412-9.471-4.928a5.42,5.42,0,0,0-1.756,2.454,4.515,4.515,0,0,0-.488,1.75c-.031,2.433,2.192,2.839,3.722,4A12.242,12.242,0,0,1,304.1,292.285Z" transform="translate(-284.217 -277.544)" fill="#3b3631"/>
                    <path id="Path_1786" data-name="Path 1786" d="M285.529,309.517a10.511,10.511,0,0,0,6.981-6.576,21.1,21.1,0,0,0,.944-9.835c-1.119-11.011-14.815-10.3-19.45-1.863C269.965,298.593,276.119,311.735,285.529,309.517Z" transform="translate(-272.743 -281.111)" fill="#d5c6ab"/>
                  </g>
                  <path id="Path_1787" data-name="Path 1787" d="M291.457,327.968c-.057,1.253-.108,2.51-.164,3.763a.787.787,0,0,1-.154.518.753.753,0,0,1-.59.144l-3.065-.108a3.278,3.278,0,0,1-1.478-.282c-.975-.524-1.181-1.848-1.022-2.947a9.612,9.612,0,0,0,.318-3.29c2.11,1.042,4.117-1.309,6.227-.272Z" transform="translate(-278.677 -300.748)" fill="#d5c6ab"/>
                </g>
                <path id="Path_1788" data-name="Path 1788" d="M267.256,263.354c-3.593,1.222-5.9,4.856-9.409,6.309-2.012.832-4.394.939-6.037,2.372-3.681,3.208-.724,9.938-3.747,13.768-.626.8-1.478,1.4-2.1,2.192-1.36,1.715-1.54,4.055-1.663,6.237a7.228,7.228,0,0,0,.051,1.525c.472,5.046,7.8,4.728,10.708,4.4,3.193-.354,2.13-2.13,2.13-2.13l-.118-.144a6.1,6.1,0,0,1,2.146-5.539,7.524,7.524,0,0,0,1.725-1.514c.944-1.443.041-3.357.18-5.077.56-6.93,12.192-5.447,15.472-10.38C280.628,269.33,274.047,261.044,267.256,263.354Z" transform="translate(-222.853 -262.958)" fill="#3b3631"/>
              </g>
            </g>
            <g id="Group_701" data-name="Group 701">
              <path id="Path_1789" data-name="Path 1789" d="M258.483,232.726q-.816-.408-1.648-.8a49.842,49.842,0,0,0,8.532-28.367c0-25.225-17.792-45.748-39.66-45.748s-39.66,20.523-39.66,45.748a49.868,49.868,0,0,0,8.532,28.367c-.857.4-1.432.683-1.684.811a65.62,65.62,0,0,0-38.254,59.429v15.857A12.39,12.39,0,0,0,167.017,320.4H284.386a12.39,12.39,0,0,0,12.377-12.377V292.165A65.591,65.591,0,0,0,258.483,232.726Z" transform="translate(-154.64 -157.81)" fill="#fff"/>
              <g id="Group_700" data-name="Group 700" transform="translate(4.297 4.286)">
                <path id="Path_1790" data-name="Path 1790" d="M260.7,311.28c-.216.262-.421.529-.637.785-8.018,9.4-18.773,14.574-30.282,14.574s-22.263-5.174-30.282-14.574c-.221-.257-.426-.524-.637-.785a61.263,61.263,0,0,0-35.856,55.579v15.857a8.089,8.089,0,0,0,8.09,8.09H288.469a8.09,8.09,0,0,0,8.09-8.09V366.859A61.263,61.263,0,0,0,260.7,311.28Z" transform="translate(-163.01 -236.785)" fill="#8455e4"/>
                <path id="Path_1791" data-name="Path 1791" d="M259.549,249.084c9.291,0,17.746-4.2,24.055-11.078a44.889,44.889,0,0,0,11.314-30.384c0-22.9-15.836-41.462-35.374-41.462s-35.374,18.562-35.374,41.462a44.889,44.889,0,0,0,11.314,30.384C241.8,244.88,250.253,249.084,259.549,249.084Z" transform="translate(-192.774 -166.16)" fill="#8455e4"/>
              </g>
            </g>
            <path id="Path_1792" data-name="Path 1792" d="M165.5,361.84l4.384-2.5,3.983,7.243-4.184,7.433-6.678-3.09Z" transform="translate(-158.713 -255.887)" fill="#eac1a4"/>
            <path id="Path_1793" data-name="Path 1793" d="M410.377,355.21l-4.384-2.5-3.984,7.243,4.184,7.433,6.678-3.09Z" transform="translate(-275.026 -252.661)" fill="#eac1a4"/>
          </g>
          <g id="Group_707" data-name="Group 707" transform="translate(160.397 89.483)">
            <path id="Path_1794" data-name="Path 1794" d="M602.774,696.486l.575,4.482-8.388,5.636L589.9,702.7l3.906-5.062L602.194,692Z" transform="translate(-526.862 -455.515)" fill="#363f51"/>
            <g id="Group_703" data-name="Group 703" transform="translate(39.732 103.341)">
              <path id="Path_1795" data-name="Path 1795" d="M580.962,568.751l-6.473-57.175,7.787-64.008-1.75-13.619-34.773-1.319L544.5,454.791l5.837,56.873L572.3,571.677Z" transform="translate(-544.5 -432.63)" fill="#d3d3d3"/>
            </g>
            <path id="Path_1796" data-name="Path 1796" d="M504.82,309.39l-17.489,4.764L467.1,349.995l9.584,8.876,13.485-15.97Z" transform="translate(-467.1 -269.313)" fill="#3b455a"/>
            <g id="Group_704" data-name="Group 704" transform="translate(15.38 104.198)">
              <path id="Path_1797" data-name="Path 1797" d="M497.152,439.849l-.092,57.7,11.612,74.28,8.362-.087,4.594-68.69L532.383,434.3Z" transform="translate(-497.06 -434.3)" fill="#d3d3d3"/>
              <path id="Path_1798" data-name="Path 1798" d="M523.087,704.627l-8.994,4.61-4.564-4.471,4.476-4.569,9.04-.087Z" transform="translate(-503.129 -563.66)" fill="#363f51"/>
            </g>
            <g id="Group_705" data-name="Group 705" transform="translate(8.303 39.695)">
              <path id="Path_1799" data-name="Path 1799" d="M556.079,398.322c-.082-2.5-.221-4.589-.236-5.334-.18-6.709-.775-13.4-1.617-20.061-.755-5.97-1.7-20.785-2.726-26.714-.842-4.9-3.783-17.12-5.9-21.663-5.282-11.3-3.65-12.341-26.842-15.693-10.164-1.468-12.566,4.866-20.877,12.151-.821.719-.775,4.995-.965,6.129-.334,2-.693,3.989-1.1,5.97-.323,1.561-.678,3.111-1.078,4.656-4.137,15.97-8.891,31.324-9.861,47.879-.277,4.671-1.709,9.2-1.586,13.916a2.564,2.564,0,0,0,.4,1.545c1.4,1.771,9.153-.934,11.5-1.165a172.114,172.114,0,0,1,18.111-.914,113.921,113.921,0,0,1,18.449,1.72,39.648,39.648,0,0,1,11.838,3.563c3.465,1.812,5.965,4.471,9.481,6.345a1.828,1.828,0,0,0,1.078.308C556.151,410.678,556.248,403.584,556.079,398.322Z" transform="translate(-483.275 -308.644)" fill="#3b455a"/>
            </g>
            <g id="Group_706" data-name="Group 706" transform="translate(18.533)">
              <path id="Path_1800" data-name="Path 1800" d="M542.52,288.888c1.171.58,3.932.785,6.812-.344a1.508,1.508,0,0,0,.965-1.412,38.783,38.783,0,0,0-.421-5.231c2.161-.76,4.656-1.9,5.036-4.158a6.467,6.467,0,0,0-.128-2.151q-.763-4.412-1.525-8.819a7.949,7.949,0,0,0-.914-2.936c-.97-1.53-2.854-2.2-4.635-2.505a16.091,16.091,0,0,0-13.039,3.178,7.069,7.069,0,0,0-2.2,2.905c-.637,1.786-.159,3.753.318,5.585q.67,2.541,1.335,5.077c.513,1.946,1.247,4.158,3.126,4.887,1,.39,2.172.272,3.075.847C541.9,284.833,541.694,287.2,542.52,288.888Z" transform="translate(-517.297 -245.797)" fill="#d5c6ab"/>
              <path id="Path_1801" data-name="Path 1801" d="M503.32,244.968c-.78-7.3,2.408-14.984,8.414-13.455,3.634.924,6.889,2.459,10.549,1.093,3.439-1.283,5.924-.76,9.517.524,3.891,1.386,9.112,1.715,12.633,3.675a10.392,10.392,0,0,1,3.557,3.511,15.653,15.653,0,0,1,.041,16.555,22.288,22.288,0,0,1-2.433,3.07c-1.838,1.992-4.03,4.451-6.555,5.185-.062-2.259,2-9.379.262-11.232-2.751-2.936-8.978-1.915-12.392-1.191-3.727.791-7.043,3.429-10.739,3.989C508.027,257.935,504.033,251.611,503.32,244.968Z" transform="translate(-503.204 -231.317)" fill="#3b3631"/>
            </g>
          </g>
          <g id="Group_709" data-name="Group 709" transform="translate(125.146 0)">
            <path id="Path_1802" data-name="Path 1802" d="M519.849,144.6c-.637-.318-1.278-.631-1.93-.934a58.31,58.31,0,0,0,9.979-33.167C527.9,81,507.1,57,481.524,57s-46.375,24-46.375,53.495a58.3,58.3,0,0,0,9.979,33.172c-1.006.462-1.674.8-1.966.95a76.738,76.738,0,0,0-44.732,69.49v18.542a14.492,14.492,0,0,0,14.476,14.476h137.24a14.492,14.492,0,0,0,14.476-14.476V214.106A76.735,76.735,0,0,0,519.849,144.6Z" transform="translate(-398.43 -57)" fill="#fff"/>
            <g id="Group_708" data-name="Group 708" transform="translate(5.02 5.01)">
              <path id="Path_1803" data-name="Path 1803" d="M522.442,236.45c-.251.3-.488.616-.744.919-9.379,10.991-21.95,17.043-35.41,17.043s-26.031-6.052-35.41-17.043c-.257-.3-.5-.611-.744-.919a71.629,71.629,0,0,0-41.924,64.988V319.98a9.46,9.46,0,0,0,9.461,9.461h137.24a9.46,9.46,0,0,0,9.461-9.461V301.438A71.642,71.642,0,0,0,522.442,236.45Z" transform="translate(-408.21 -149.342)" fill="#8455e4"/>
              <path id="Path_1804" data-name="Path 1804" d="M521.1,163.724c10.867,0,20.749-4.918,28.131-12.951,8.136-8.855,13.229-21.493,13.229-35.528,0-26.776-18.516-48.485-41.359-48.485s-41.359,21.7-41.359,48.485c0,14.04,5.1,26.678,13.229,35.528C500.35,158.806,510.232,163.724,521.1,163.724Z" transform="translate(-443.021 -66.76)" fill="#8455e4"/>
            </g>
          </g>
          <path id="Path_1805" data-name="Path 1805" d="M467.41,419.64l-1.91-4.671,7.695-3.008,6.832,5.108-3.927,6.222Z" transform="translate(-305.924 -229.746)" fill="#eac1a4"/>
          <path id="Path_1806" data-name="Path 1806" d="M624.668,419.609l1.894-4.676-7.71-2.982-6.812,5.133,3.953,6.206Z" transform="translate(-377.24 -229.742)" fill="#eac1a4"/>
        </g>
      </g>
    </g>
  </g>
</svg>
